<?xml version="1.0" encoding="utf-8"?>
<!-- Generator: Adobe Illustrator 19.1.0, SVG Export Plug-In . SVG Version: 6.00 Build 0)  -->
<svg version="1.1" id="Layer_1" xmlns="http://www.w3.org/2000/svg" xmlns:xlink="http://www.w3.org/1999/xlink" x="0px" y="0px"
	 viewBox="0 0 72 72" style="enable-background:new 0 0 72 72;" xml:space="preserve">
<g>
	<defs>
		<path id="SVGID_1_" d="M5.5,36.5c0,17.1,13.9,31,31,31c17.1,0,31-13.9,31-31c0-9.9-4.6-18.6-11.8-24.3L32,28.7
			c-2.2,1.5-3.7,3.6-4.2,5.9c-0.6,2.4-0.1,4.7,1.4,6.8c1.7,2.4,4.2,3.8,7.1,3.8c2,0,4.1-0.7,5.9-1.9l5.2-3.6l-4.9-7l7.6-5.3
			l10.2,14.6l-13.1,9.2c-3.2,2.3-7,3.5-10.8,3.5c-6,0-11.3-2.8-14.8-7.7c-2.8-4-3.9-8.9-3-13.7c0.9-4.8,3.7-8.9,7.7-11.8L46.6,7.2
			C43.4,6.1,40,5.5,36.5,5.5C19.4,5.5,5.5,19.4,5.5,36.5"/>
	</defs>
	<use xlink:href="#SVGID_1_"  style="overflow:visible;fill:#FFFFFF;"/>
	<clipPath id="SVGID_2_">
		<use xlink:href="#SVGID_1_"  style="overflow:visible;"/>
	</clipPath>
</g>
</svg>
